<?xml version="1.0" encoding="utf-8"?>
<!-- Generator: Adobe Illustrator 16.0.0, SVG Export Plug-In . SVG Version: 6.00 Build 0)  -->
<!DOCTYPE svg PUBLIC "-//W3C//DTD SVG 1.1//EN" "http://www.w3.org/Graphics/SVG/1.1/DTD/svg11.dtd">
<svg version="1.1" id="Layer_1" xmlns="http://www.w3.org/2000/svg" xmlns:xlink="http://www.w3.org/1999/xlink" x="0px" y="0px"
	 width="715.28px" height="192.002px" viewBox="0 0 715.28 192.002" enable-background="new 0 0 715.28 192.002"
	 xml:space="preserve">
<g>
	<g>
		<g>
			<path d="M487.681,104.438h-27.567v21.901h28.342c10.532,0,16.88-3.411,16.88-10.808v-0.284
				C505.335,108.563,499.915,104.438,487.681,104.438z"/>
			<path d="M499.297,75.71v-0.284c0-6.541-5.576-10.239-15.643-10.239h-23.541v21.046h21.991
				C492.636,86.233,499.297,83.106,499.297,75.71z"/>
			<path d="M95.997,0C43.063,0,0,43.067,0,96.007c0,51.928,40.685,94.024,92.624,95.831c-0.035,0,0.818,0.048,0.818,0.048
				l2.555,0.116l2.555-0.116l0.848-0.048l522.815,0.005c52.271-1.812,92.956-43.878,93.002-95.761l0.063-85.18V0H95.997z
				 M96.083,147.793c-29.476,0-51.254-23.097-51.254-51.257v-0.376c0-28.164,21.778-51.819,51.444-51.819
				c18.775,0,30.415,6.948,39.614,17.085l-14.081,15.207c-6.945-7.322-14.27-12.39-25.723-12.39
				c-16.521,0-28.538,14.267-28.538,31.541v0.376c0,17.65,12.206,31.92,29.667,31.92c10.701,0,18.585-5.071,25.72-12.393
				l13.708,13.518C126.877,140.093,115.424,147.793,96.083,147.793z M239.14,145.536h-22.717v-15.393
				c-6.382,9.386-15.582,17.46-30.978,17.46c-22.341,0-35.293-15.02-35.293-38.113V46.411h22.714v56.32
				c0,15.399,7.698,24.222,21.219,24.222c13.139,0,22.338-9.199,22.338-24.596V46.411h22.717V145.536z M316.494,68.561h-1.315
				c-19.901,0-33.794,12.955-33.794,39.241v37.737h-22.717V46.407h22.717v22.341c6.196-14.833,17.65-24.971,35.109-24.219V68.561z
				 M420.496,104.047h-72.847c2.44,16.147,13.895,25.157,28.537,25.157c11.077,0,18.963-4.128,26.849-11.826l13.328,11.826
				c-9.386,11.267-22.34,18.586-40.553,18.586c-28.724,0-50.875-20.837-50.875-51.441v-0.376c0-28.345,20.087-51.626,48.435-51.626
				c31.541,0,47.499,24.783,47.499,53.316C420.869,99.731,420.683,101.796,420.496,104.047z M529.031,118.233
				c0,18.204-16.106,27.306-40.576,27.306h-51.569V45.987h50.329c12.39,0,22.146,3.13,28.342,8.817
				c4.956,4.551,7.434,10.098,7.434,16.923v0.287c0,11.232-6.503,17.492-14.246,21.471c12.544,4.41,20.287,11.095,20.287,24.463
				V118.233z M567.914,145.539h-23.852V45.987h23.852V145.539z M674.003,66.181h-32.987v79.358h-23.848V66.181H584.18V45.987h89.823
				V66.181z"/>
			<path d="M373.187,62.931c-13.897,0-23.659,10.704-25.726,26.1h50.88C396.84,74.384,388.203,62.931,373.187,62.931z"/>
		</g>
	</g>
</g>
</svg>
